<?xml version="1.0" encoding="UTF-8"?>
<svg id="Ebene_2" data-name="Ebene 2" xmlns="http://www.w3.org/2000/svg" viewBox="0 0 443.25 40.88">
  <defs>
    <style>
      .cls-1 {
        fill: #1d1d1b;
      }
    </style>
  </defs>
  <g id="Ebene_1-2" data-name="Ebene 1">
    <g>
      <path class="cls-1" d="M12.98.38h6.98l13.01,31.5h-5.66l-2.25-5.55H7.84l-2.21,5.55H0L12.98.38ZM23.14,21.6l-6.71-16.65-.34.9-6.34,15.75h13.39Z"/>
      <path class="cls-1" d="M55.18,28.43c-1.31,1.8-4.01,3.83-8.59,3.83-7.69,0-12.38-5.33-12.38-12.53v-.08c0-7.28,4.84-12.53,12.26-12.53,4.58,0,7.39,2.06,8.7,3.83v-3.45h5.06v24.27c0,5.81-2.14,9.11-8.85,9.11h-15.83v-4.39h15.15c3.71,0,4.46-1.61,4.46-5.33v-2.74ZM47.3,27.83c5.29,0,7.88-3.6,7.88-8.06v-.15c0-4.46-2.55-8.06-7.88-8.06s-7.88,3.75-7.88,8.1v.08c0,4.31,2.44,8.1,7.88,8.1Z"/>
      <path class="cls-1" d="M65.24,19.62c0-7.35,4.31-12.49,13.35-12.49,7.91,0,12.6,4.54,12.6,12.53v1.2h-20.63c.34,4.12,2.74,6.98,8.06,6.98,4.31,0,6.15-1.95,6.6-3.79l.07-.22h5.63l-.04.22c-.71,4.5-4.73,8.21-12.34,8.21-9,0-13.31-5.14-13.31-12.6v-.04ZM85.9,17.14l-.04-.08c-.56-3.53-3.23-5.51-7.5-5.51s-6.83,2.21-7.58,5.59h15.11Z"/>
      <path class="cls-1" d="M101.32,11.85c1.88-2.85,4.84-4.73,9.11-4.73,6.04,0,10.01,4.05,10.01,10.73v14.03h-5.1v-13.35c0-4.54-2.21-7.01-6.64-7.01-6.19,0-7.35,4.76-7.35,7.31l-.04-.64v13.69h-5.06V7.5h5.06v4.35Z"/>
      <path class="cls-1" d="M144.12,11.89h-8.74v11.51c0,3.08.53,4.09,2.66,4.09h6.08v4.39h-6.94c-5.4,0-6.79-2.7-6.79-7.58v-12.41h-7.31v-4.39h3.56c3.45,0,4.46-2.17,4.43-7.13h4.99c0,3.79-.71,6.64-2.48,7.13h10.54v4.39Z"/>
      <path class="cls-1" d="M151.67,0c2.14,0,3.23,1.05,3.23,2.59s-1.09,2.55-3.23,2.55-3.19-1.09-3.19-2.55c0-1.54,1.09-2.59,3.19-2.59ZM154.22,7.5v24.38h-5.06V7.5h5.06Z"/>
      <path class="cls-1" d="M172.45,11.55c-5.7,0-7.99,3.38-7.99,8.14v.11c0,4.65,2.29,8.03,8.03,8.03,5.33,0,7.16-2.92,7.43-5.51l.11-1.01h5.18l-.11,1.01c-.56,4.95-4.43,9.94-12.71,9.94-8.81,0-13.13-5.14-13.13-12.56v-.08c0-7.35,4.31-12.49,13.13-12.49,8.21,0,12.26,4.91,12.71,9.9l.11,1.09h-5.18l-.15-1.09c-.22-2.55-2.4-5.48-7.43-5.48Z"/>
      <path class="cls-1" d="M200.47,20.93v-.38h5.44v.38c0,4.69,2.96,6.71,10.05,6.71,5.81,0,8.44-1.42,8.44-4.61-.04-3.08-1.99-3.94-7.09-4.76l-6.94-1.16c-5.14-.83-8.78-3.23-8.78-8.25,0-5.85,4.69-8.85,13.35-8.85,9.23,0,13.91,3.53,13.91,9.86v.38h-5.4v-.38c0-3.56-2.4-5.25-8.44-5.25-5.36,0-7.99,1.35-7.99,4.05,0,2.51,2.51,3.68,6.45,4.28l7.05,1.12c5.81.86,9.26,3.08,9.26,8.59,0,6.79-4.16,9.6-13.99,9.6-10.58,0-15.34-3.98-15.34-11.33Z"/>
      <path class="cls-1" d="M253.58,27.57c-1.88,2.81-4.84,4.69-9.08,4.69-6.04,0-10.01-4.05-10.01-10.73V7.5h5.1v13.35c0,4.54,2.21,7.01,6.64,7.01,6.19,0,7.35-4.76,7.35-7.31V7.5h5.1v24.68c0,5.74-3.08,8.7-7.95,8.7h-15.64v-4.39h15.04c2.25,0,3.45-1.12,3.45-4.35v-4.58Z"/>
      <path class="cls-1" d="M270.02,11.85c1.88-2.85,4.84-4.73,9.11-4.73,6.04,0,10.01,4.05,10.01,10.73v14.03h-5.1v-13.35c0-4.54-2.21-7.01-6.64-7.01-6.19,0-7.35,4.76-7.35,7.31l-.04-.64v13.69h-5.06V7.5h5.06v4.35Z"/>
      <path class="cls-1" d="M319.83.38v31.5h-5.06v-3.41c-1.31,1.8-4.01,3.79-8.55,3.79-7.69,0-12.38-5.33-12.38-12.53v-.08c0-7.28,4.84-12.53,12.26-12.53,4.54,0,7.35,2.03,8.66,3.79V.38h5.06ZM306.93,27.83c4.91,0,7.5-3.11,7.84-7.16v-1.99c-.34-4.01-2.89-7.13-7.84-7.13-5.48,0-7.88,3.75-7.88,8.1v.08c0,4.31,2.44,8.1,7.88,8.1Z"/>
      <path class="cls-1" d="M328.65,0c2.14,0,3.23,1.05,3.23,2.59s-1.09,2.55-3.23,2.55-3.19-1.09-3.19-2.55c0-1.54,1.09-2.59,3.19-2.59ZM331.2,7.5v24.38h-5.06V7.5h5.06Z"/>
      <path class="cls-1" d="M349.43,11.55c-5.7,0-7.99,3.38-7.99,8.14v.11c0,4.65,2.29,8.03,8.03,8.03,5.33,0,7.16-2.92,7.43-5.51l.11-1.01h5.18l-.11,1.01c-.56,4.95-4.43,9.94-12.71,9.94-8.81,0-13.13-5.14-13.13-12.56v-.08c0-7.35,4.31-12.49,13.13-12.49,8.21,0,12.26,4.91,12.71,9.9l.11,1.09h-5.18l-.15-1.09c-.23-2.55-2.4-5.48-7.43-5.48Z"/>
      <path class="cls-1" d="M385.41,27.53c-2.4,3.38-6.56,4.73-10.91,4.73-5.29,0-8.66-2.06-8.66-6.56,0-4.8,4.46-6.38,9.15-7.2l3.56-.64c4.05-.71,6.75-1.16,6.75-3.3,0-1.58-1.58-3.11-6.11-3.11-5.14,0-7.28,1.84-7.28,4.95v.68h-5.1v-.68c0-5.74,4.16-9.26,12.26-9.26,8.55,0,11.29,3.56,11.29,8.33v16.43h-4.95v-4.35ZM375.65,28.24c4.88,0,9.04-2.48,9.64-6.71v-2.78c-.83,1.65-3.38,2.18-6.34,2.74l-3.26.6c-3.19.6-4.8,1.31-4.8,3.23,0,2.1,1.54,2.93,4.76,2.93Z"/>
      <path class="cls-1" d="M414.37,11.89h-8.74v11.51c0,3.08.53,4.09,2.66,4.09h6.08v4.39h-6.94c-5.4,0-6.79-2.7-6.79-7.58v-12.41h-7.31v-4.39h3.56c3.45,0,4.46-2.17,4.43-7.13h4.99c0,3.79-.71,6.64-2.47,7.13h10.54v4.39Z"/>
      <path class="cls-1" d="M417.3,19.62c0-7.35,4.31-12.49,13.35-12.49,7.91,0,12.6,4.54,12.6,12.53v1.2h-20.63c.34,4.12,2.74,6.98,8.06,6.98,4.31,0,6.15-1.95,6.6-3.79l.08-.22h5.63l-.04.22c-.71,4.5-4.73,8.21-12.34,8.21-9,0-13.32-5.14-13.32-12.6v-.04ZM437.96,17.14l-.04-.08c-.56-3.53-3.23-5.51-7.5-5.51s-6.83,2.21-7.58,5.59h15.12Z"/>
    </g>
  </g>
</svg>